<?xml version="1.0" encoding="UTF-8" standalone="no"?>
<!-- Created with Inkscape (http://www.inkscape.org/) -->

<svg
   width="94mm"
   height="73mm"
   viewBox="0 0 94 73"
   version="1.1"
   id="svg1"
   inkscape:version="1.3.2 (091e20e, 2023-11-25, custom)"
   sodipodi:docname="pbp_light.svg"
   xml:space="preserve"
   inkscape:export-filename="pbp_light.png"
   inkscape:export-xdpi="300"
   inkscape:export-ydpi="300"
   xmlns:inkscape="http://www.inkscape.org/namespaces/inkscape"
   xmlns:sodipodi="http://sodipodi.sourceforge.net/DTD/sodipodi-0.dtd"
   xmlns="http://www.w3.org/2000/svg"
   xmlns:svg="http://www.w3.org/2000/svg"><sodipodi:namedview
     id="namedview1"
     pagecolor="#ffffff"
     bordercolor="#000000"
     borderopacity="0.25"
     inkscape:showpageshadow="2"
     inkscape:pageopacity="0.0"
     inkscape:pagecheckerboard="0"
     inkscape:deskcolor="#d1d1d1"
     inkscape:document-units="mm"
     inkscape:zoom="0.92470539"
     inkscape:cx="229.26221"
     inkscape:cy="160.59169"
     inkscape:window-width="1366"
     inkscape:window-height="715"
     inkscape:window-x="-8"
     inkscape:window-y="-8"
     inkscape:window-maximized="1"
     inkscape:current-layer="layer1" /><defs
     id="defs1"><rect
       x="232.46373"
       y="77.997696"
       width="542.92517"
       height="116.23186"
       id="rect6" /><inkscape:path-effect
       effect="powermask"
       id="path-effect44"
       is_visible="true"
       lpeversion="1"
       uri="#mask-powermask-path-effect44"
       invert="false"
       hide_mask="false"
       background="true"
       background_color="#ffffffff" /><inkscape:path-effect
       effect="fillet_chamfer"
       id="path-effect16"
       is_visible="true"
       lpeversion="1"
       nodesatellites_param="F,0,0,1,0,5.4034078,0,1 @ F,0,0,1,0,0,0,1 @ F,0,0,1,0,3.6984855,0,1 @ F,0,0,1,0,1.4119605,0,1"
       radius="0"
       unit="px"
       method="auto"
       mode="F"
       chamfer_steps="1"
       flexible="false"
       use_knot_distance="true"
       apply_no_radius="true"
       apply_with_radius="true"
       only_selected="false"
       hide_knots="false" /><inkscape:perspective
       sodipodi:type="inkscape:persp3d"
       inkscape:vp_x="0 : -75.500002 : 1"
       inkscape:vp_y="0 : 999.99996 : 0"
       inkscape:vp_z="210 : -75.500002 : 1"
       inkscape:persp3d-origin="105 : -125 : 1"
       id="perspective15" /><rect
       x="335.24191"
       y="114.6311"
       width="439.05875"
       height="276.84494"
       id="rect5" /><rect
       x="189.79018"
       y="184.92377"
       width="183.84235"
       height="126.52679"
       id="rect4" /><rect
       x="188.16805"
       y="83.810478"
       width="235.75076"
       height="222.77367"
       id="rect3" /><rect
       x="51.908424"
       y="218.44795"
       width="307.66556"
       height="173.5688"
       id="rect2" /><rect
       x="45.881001"
       y="81.056435"
       width="252.34549"
       height="120.81996"
       id="rect1" /><rect
       x="51.908424"
       y="218.44795"
       width="307.66556"
       height="173.5688"
       id="rect2-3" /><filter
       id="mask-powermask-path-effect46_inverse"
       inkscape:label="filtermask-powermask-path-effect46"
       style="color-interpolation-filters:sRGB"
       height="100"
       width="100"
       x="-50"
       y="-50"><feColorMatrix
         id="mask-powermask-path-effect46_primitive1"
         values="1"
         type="saturate"
         result="fbSourceGraphic" /><feColorMatrix
         id="mask-powermask-path-effect46_primitive2"
         values="-1 0 0 0 1 0 -1 0 0 1 0 0 -1 0 1 0 0 0 1 0 "
         in="fbSourceGraphic" /></filter></defs><g
     inkscape:label="Livello 1"
     inkscape:groupmode="layer"
     id="layer1"
     transform="translate(-10.864116,-32.240185)"><rect
       style="fill:#130754;fill-opacity:1;stroke:#617fd9;stroke-width:0;stroke-linecap:round;stroke-linejoin:round;stroke-dasharray:none;paint-order:stroke fill markers"
       id="rect9-3"
       width="3.9332879"
       height="41.847454"
       x="69.783676"
       y="44.800312"
       inkscape:export-filename="rect9.png"
       inkscape:export-xdpi="600"
       inkscape:export-ydpi="600" /><path
       id="path5-0"
       style="fill:#130754;fill-opacity:1;stroke:#617fd9;stroke-width:0;stroke-linecap:round;stroke-linejoin:round;stroke-dasharray:none;paint-order:stroke fill markers"
       d="M 57.78688,44.800072 A 15.915037,15.915037 0 0 0 41.872813,60.715315 15.915037,15.915037 0 0 0 57.78688,76.630555 15.915037,15.915037 0 0 0 73.70212,60.715315 15.915037,15.915037 0 0 0 57.78688,44.800072 Z m 0,3.46479 A 12.504672,12.504672 0 0 1 70.291378,60.76936 12.504672,12.504672 0 0 1 57.78688,73.273855 12.504672,12.504672 0 0 1 45.282383,60.76936 12.504672,12.504672 0 0 1 57.78688,48.264862 Z" /><rect
       style="fill:#130754;fill-opacity:1;stroke:#617fd9;stroke-width:0;stroke-linecap:round;stroke-linejoin:round;stroke-dasharray:none;paint-order:stroke fill markers"
       id="rect9-4"
       width="3.9332879"
       height="41.847454"
       x="41.872524"
       y="-76.630379"
       transform="scale(1,-1)" /><rect
       style="fill:#130754;fill-opacity:1;stroke:#617fd9;stroke-width:0;stroke-linecap:round;stroke-linejoin:round;stroke-dasharray:none;paint-order:stroke fill markers"
       id="rect9"
       width="3.9332879"
       height="41.847454"
       x="14.071124"
       y="44.800312" /><path
       id="path7-4-1-3-2-9"
       style="fill:#008080;fill-opacity:1;stroke:#617fd9;stroke-width:0;stroke-linecap:round;stroke-linejoin:round;stroke-dasharray:none;paint-order:stroke fill markers"
       d="m 31.122002,48.264825 v 12.450451 h 2.207642 V 48.673692 a 12.504672,12.504672 0 0 0 -2.207642,-0.408867 z m -2.273439,0.02001 a 12.504672,12.504672 0 0 0 -2.206469,0.411167 v 12.019262 h 2.206469 z m -4.479908,1.281821 a 12.504672,12.504672 0 0 0 -0.635622,0.319574 12.504672,12.504672 0 0 0 -1.572021,1.095008 v 9.73403 h 2.207643 z m 11.234427,0.0059 V 60.71534 h 2.207643 v -9.752963 a 12.504672,12.504672 0 0 0 -1.573196,-1.076211 12.504672,12.504672 0 0 0 -0.634447,-0.313699 z m 4.481082,3.769091 v 7.373693 h 2.406201 a 12.504672,12.504672 0 0 0 -2.406201,-7.373672 z m -20.196589,0.027 a 12.504672,12.504672 0 0 0 -2.4062,7.346671 h 2.4062 z" /><path
       id="path7-4-1-3-2-9-7"
       style="fill:#617fd9;fill-opacity:0.905325;stroke:#617fd9;stroke-width:0;stroke-linecap:round;stroke-linejoin:round;stroke-dasharray:none;paint-order:stroke fill markers"
       d="m 28.849736,73.165872 v -12.45045 h -2.207642 v 12.041583 a 12.504672,12.504672 0 0 0 2.207642,0.408867 z m 2.273438,-0.02001 a 12.504672,12.504672 0 0 0 2.20647,-0.411169 V 60.715436 h -2.20647 z m 4.479908,-1.28182 a 12.504672,12.504672 0 0 0 0.635622,-0.319573 12.504672,12.504672 0 0 0 1.572021,-1.095009 v -9.734028 h -2.207643 z m -11.234427,-0.0059 V 60.715337 h -2.207643 v 9.752964 a 12.504672,12.504672 0 0 0 1.573197,1.076212 12.504672,12.504672 0 0 0 0.634446,0.3137 z m -4.48108,-3.76909 v -7.373683 h -2.4062 a 12.504672,12.504672 0 0 0 2.4062,7.373695 z m 20.196589,-0.027 a 12.504672,12.504672 0 0 0 2.406201,-7.34667 h -2.406201 z" /><path
       id="path5"
       style="fill:#130754;fill-opacity:1;stroke:#617fd9;stroke-width:0;stroke-linecap:round;stroke-linejoin:round;stroke-dasharray:none;paint-order:stroke fill markers"
       d="M 29.986317,44.800072 A 15.915037,15.915037 0 0 0 14.07108,60.715315 15.915037,15.915037 0 0 0 29.986317,76.630555 15.915037,15.915037 0 0 0 45.900382,60.715315 15.915037,15.915037 0 0 0 29.986317,44.800072 Z m 0,3.46479 A 12.504672,12.504672 0 0 1 42.490812,60.76936 12.504672,12.504672 0 0 1 29.986317,73.273855 12.504672,12.504672 0 0 1 17.481824,60.76936 12.504672,12.504672 0 0 1 29.986317,48.264862 Z" /><path
       id="path5-2"
       style="fill:#130754;fill-opacity:1;stroke:#617fd9;stroke-width:0;stroke-linecap:round;stroke-linejoin:round;stroke-dasharray:none;paint-order:stroke fill markers"
       d="M 85.697884,44.800072 A 15.915037,15.915037 0 0 0 69.783817,60.715315 15.915037,15.915037 0 0 0 85.697884,76.630555 15.915037,15.915037 0 0 0 101.61313,60.715315 15.915037,15.915037 0 0 0 85.697884,44.800072 Z m 0,3.46479 A 12.504672,12.504672 0 0 1 98.202381,60.76936 12.504672,12.504672 0 0 1 85.697884,73.273855 12.504672,12.504672 0 0 1 73.193389,60.76936 12.504672,12.504672 0 0 1 85.697884,48.264862 Z" /><path
       id="path7-4-1-3-2-9-7-6-1"
       style="fill:#617fd9;fill-opacity:0.905325;stroke:#617fd9;stroke-width:0;stroke-linecap:round;stroke-linejoin:round;stroke-dasharray:none;paint-order:stroke fill markers"
       d="m 58.923466,48.264825 v 12.450451 h 2.207643 V 48.673692 a 12.504672,12.504672 0 0 0 -2.207643,-0.408867 z m -2.273437,0.02001 a 12.504672,12.504672 0 0 0 -2.206471,0.411171 v 12.019262 h 2.206471 z m -4.479908,1.281821 a 12.504672,12.504672 0 0 0 -0.635622,0.319574 12.504672,12.504672 0 0 0 -1.572022,1.095008 v 9.73403 h 2.207644 z m 11.234426,0.0059 V 60.71534 h 2.207644 v -9.752942 a 12.504672,12.504672 0 0 0 -1.573197,-1.076211 12.504672,12.504672 0 0 0 -0.634447,-0.313699 z m 4.481082,3.769091 v 7.373693 h 2.4062 a 12.504672,12.504672 0 0 0 -2.4062,-7.373693 z m -20.19659,0.027 a 12.504672,12.504672 0 0 0 -2.406202,7.346671 h 2.406202 z" /><path
       id="path7-4-1-3-2-9-3-9"
       style="fill:#008080;fill-opacity:1;stroke:#617fd9;stroke-width:0;stroke-linecap:round;stroke-linejoin:round;stroke-dasharray:none;paint-order:stroke fill markers"
       d="m 56.651201,73.165872 v -12.45045 h -2.207643 v 12.041583 a 12.504672,12.504672 0 0 0 2.207643,0.408867 z m 2.273438,-0.02001 a 12.504672,12.504672 0 0 0 2.20647,-0.411169 V 60.715436 h -2.20647 z m 4.479908,-1.28182 a 12.504672,12.504672 0 0 0 0.635622,-0.319573 12.504672,12.504672 0 0 0 1.572022,-1.095009 v -9.734028 h -2.207644 z m -11.234426,-0.0059 V 60.715337 h -2.207644 v 9.752964 a 12.504672,12.504672 0 0 0 1.573197,1.076212 12.504672,12.504672 0 0 0 0.634447,0.3137 z m -4.481082,-3.76909 v -7.373694 h -2.406202 a 12.504672,12.504672 0 0 0 2.406202,7.373694 z m 20.19659,-0.027 a 12.504672,12.504672 0 0 0 2.4062,-7.34667 h -2.4062 z" /><path
       id="path7-4-1-3-2-9-3"
       style="fill:#008080;fill-opacity:1;stroke:#617fd9;stroke-width:0;stroke-linecap:round;stroke-linejoin:round;stroke-dasharray:none;paint-order:stroke fill markers"
       d="m 86.83459,48.264825 v 12.450451 h 2.207644 V 48.673692 A 12.504672,12.504672 0 0 0 86.83459,48.264825 Z m -2.273438,0.02001 a 12.504672,12.504672 0 0 0 -2.20647,0.411171 v 12.019262 h 2.20647 z m -4.479908,1.281817 a 12.504672,12.504672 0 0 0 -0.635621,0.319574 12.504672,12.504672 0 0 0 -1.572021,1.095008 v 9.73403 h 2.207642 z m 11.234428,0.0059 v 11.142784 h 2.207642 v -9.752963 a 12.504672,12.504672 0 0 0 -1.573197,-1.076211 12.504672,12.504672 0 0 0 -0.634445,-0.313699 z m 4.48108,3.769091 v 7.373693 h 2.406202 a 12.504672,12.504672 0 0 0 -2.406202,-7.373693 z m -20.196588,0.027 a 12.504672,12.504672 0 0 0 -2.406202,7.346671 h 2.406202 z" /><path
       id="path7-4-1-3-2-9-7-6"
       style="fill:#617fd9;fill-opacity:0.905325;stroke:#617fd9;stroke-width:0;stroke-linecap:round;stroke-linejoin:round;stroke-dasharray:none;paint-order:stroke fill markers"
       d="m 84.562326,73.165872 v -12.45045 h -2.207644 v 12.041583 a 12.504672,12.504672 0 0 0 2.207644,0.408867 z m 2.273438,-0.02001 a 12.504672,12.504672 0 0 0 2.20647,-0.411169 V 60.715436 h -2.20647 z m 4.479908,-1.28182 a 12.504672,12.504672 0 0 0 0.635622,-0.319573 12.504672,12.504672 0 0 0 1.57202,-1.095009 v -9.734024 h -2.207642 z m -11.234428,-0.0059 V 60.715337 h -2.207642 v 9.752964 a 12.504672,12.504672 0 0 0 1.573197,1.076212 12.504672,12.504672 0 0 0 0.634445,0.3137 z m -4.48108,-3.76909 v -7.373694 h -2.406202 a 12.504672,12.504672 0 0 0 2.406202,7.373694 z m 20.196588,-0.027 a 12.504672,12.504672 0 0 0 2.406202,-7.34667 h -2.406202 z" /><text
       xml:space="preserve"
       transform="matrix(0.2989138,0,0,0.2989138,-56.650058,60.552352)"
       id="text1"
       style="font-style:normal;font-variant:normal;font-weight:normal;font-stretch:normal;font-size:53.5463px;font-family:FontAwesome;-inkscape-font-specification:FontAwesome;letter-spacing:0px;word-spacing:0px;white-space:pre;shape-inside:url(#rect6);display:inline;fill:#130754;fill-opacity:1;stroke:#617fd9;stroke-width:0;stroke-linecap:round;stroke-linejoin:round;stroke-dasharray:none;paint-order:stroke fill markers"><tspan
         x="232.46289"
         y="130.58816"
         id="tspan4"><tspan
           style="font-family:'Century Gothic';-inkscape-font-specification:'Century Gothic';baseline-shift:baseline"
           id="tspan3">pybioportal</tspan></tspan></text></g></svg>
