<?xml version="1.0" encoding="UTF-8" standalone="no"?>
<!-- Created with Inkscape (http://www.inkscape.org/) -->

<svg
   width="94mm"
   height="58mm"
   viewBox="0 0 94 58"
   version="1.1"
   id="svg1"
   inkscape:version="1.3.2 (091e20e, 2023-11-25, custom)"
   sodipodi:docname="pbp_dark_logo.svg"
   xml:space="preserve"
   inkscape:export-filename="pbp1.png"
   inkscape:export-xdpi="300"
   inkscape:export-ydpi="300"
   xmlns:inkscape="http://www.inkscape.org/namespaces/inkscape"
   xmlns:sodipodi="http://sodipodi.sourceforge.net/DTD/sodipodi-0.dtd"
   xmlns="http://www.w3.org/2000/svg"
   xmlns:svg="http://www.w3.org/2000/svg"><sodipodi:namedview
     id="namedview1"
     pagecolor="#ffffff"
     bordercolor="#000000"
     borderopacity="0.25"
     inkscape:showpageshadow="2"
     inkscape:pageopacity="0.0"
     inkscape:pagecheckerboard="0"
     inkscape:deskcolor="#d1d1d1"
     inkscape:document-units="mm"
     inkscape:zoom="0.92470539"
     inkscape:cx="229.26221"
     inkscape:cy="160.59169"
     inkscape:window-width="1366"
     inkscape:window-height="715"
     inkscape:window-x="-8"
     inkscape:window-y="-8"
     inkscape:window-maximized="1"
     inkscape:current-layer="layer1" /><defs
     id="defs1"><rect
       x="232.46373"
       y="77.997696"
       width="542.92517"
       height="116.23186"
       id="rect6" /><inkscape:path-effect
       effect="powermask"
       id="path-effect44"
       is_visible="true"
       lpeversion="1"
       uri="#mask-powermask-path-effect44"
       invert="false"
       hide_mask="false"
       background="true"
       background_color="#ffffffff" /><inkscape:path-effect
       effect="fillet_chamfer"
       id="path-effect16"
       is_visible="true"
       lpeversion="1"
       nodesatellites_param="F,0,0,1,0,5.4034078,0,1 @ F,0,0,1,0,0,0,1 @ F,0,0,1,0,3.6984855,0,1 @ F,0,0,1,0,1.4119605,0,1"
       radius="0"
       unit="px"
       method="auto"
       mode="F"
       chamfer_steps="1"
       flexible="false"
       use_knot_distance="true"
       apply_no_radius="true"
       apply_with_radius="true"
       only_selected="false"
       hide_knots="false" /><inkscape:perspective
       sodipodi:type="inkscape:persp3d"
       inkscape:vp_x="0 : -90.500004 : 1"
       inkscape:vp_y="0 : 999.99997 : 0"
       inkscape:vp_z="210 : -90.500004 : 1"
       inkscape:persp3d-origin="105 : -140.00002 : 1"
       id="perspective15" /><rect
       x="335.24191"
       y="114.6311"
       width="439.05875"
       height="276.84494"
       id="rect5" /><rect
       x="189.79018"
       y="184.92377"
       width="183.84235"
       height="126.52679"
       id="rect4" /><rect
       x="188.16805"
       y="83.810478"
       width="235.75076"
       height="222.77367"
       id="rect3" /><rect
       x="51.908424"
       y="218.44795"
       width="307.66556"
       height="173.5688"
       id="rect2" /><rect
       x="45.881001"
       y="81.056435"
       width="252.34549"
       height="120.81996"
       id="rect1" /><rect
       x="51.908424"
       y="218.44795"
       width="307.66556"
       height="173.5688"
       id="rect2-3" /><filter
       id="mask-powermask-path-effect46_inverse"
       inkscape:label="filtermask-powermask-path-effect46"
       style="color-interpolation-filters:sRGB"
       height="100"
       width="100"
       x="-50"
       y="-50"><feColorMatrix
         id="mask-powermask-path-effect46_primitive1"
         values="1"
         type="saturate"
         result="fbSourceGraphic" /><feColorMatrix
         id="mask-powermask-path-effect46_primitive2"
         values="-1 0 0 0 1 0 -1 0 0 1 0 0 -1 0 1 0 0 0 1 0 "
         in="fbSourceGraphic" /></filter></defs><g
     inkscape:label="Livello 1"
     inkscape:groupmode="layer"
     id="layer1"
     transform="translate(-10.864116,-32.240185)"><g
       id="g1"
       transform="translate(3.228977,3.0675795)"><rect
         style="fill:#130754;fill-opacity:1;stroke:#617fd9;stroke-width:0;stroke-linecap:round;stroke-linejoin:round;stroke-dasharray:none;paint-order:stroke fill markers"
         id="rect9-3"
         width="3.9332879"
         height="41.847454"
         x="66.576714"
         y="42.257572"
         inkscape:export-filename="rect9.png"
         inkscape:export-xdpi="600"
         inkscape:export-ydpi="600" /><path
         id="path5-0"
         style="fill:#130754;fill-opacity:1;stroke:#617fd9;stroke-width:0;stroke-linecap:round;stroke-linejoin:round;stroke-dasharray:none;paint-order:stroke fill markers"
         d="M 54.579916,42.25733 A 15.915037,15.915037 0 0 0 38.665849,58.172573 15.915037,15.915037 0 0 0 54.579916,74.087813 15.915037,15.915037 0 0 0 70.495156,58.172573 15.915037,15.915037 0 0 0 54.579916,42.25733 Z m 0,3.46479 A 12.504672,12.504672 0 0 1 67.084414,58.226618 12.504672,12.504672 0 0 1 54.579916,70.731113 12.504672,12.504672 0 0 1 42.075419,58.226618 12.504672,12.504672 0 0 1 54.579916,45.72212 Z" /><rect
         style="fill:#130754;fill-opacity:1;stroke:#617fd9;stroke-width:0;stroke-linecap:round;stroke-linejoin:round;stroke-dasharray:none;paint-order:stroke fill markers"
         id="rect9-4"
         width="3.9332879"
         height="41.847454"
         x="38.665562"
         y="-74.087639"
         transform="scale(1,-1)" /><rect
         style="fill:#130754;fill-opacity:1;stroke:#617fd9;stroke-width:0;stroke-linecap:round;stroke-linejoin:round;stroke-dasharray:none;paint-order:stroke fill markers"
         id="rect9"
         width="3.9332879"
         height="41.847454"
         x="10.864161"
         y="42.257572" /><path
         id="path7-4-1-3-2-9"
         style="fill:#008080;fill-opacity:1;stroke:#617fd9;stroke-width:0;stroke-linecap:round;stroke-linejoin:round;stroke-dasharray:none;paint-order:stroke fill markers"
         d="M 27.915038,45.722083 V 58.172534 H 30.12268 V 46.13095 a 12.504672,12.504672 0 0 0 -2.207642,-0.408867 z m -2.273439,0.02001 A 12.504672,12.504672 0 0 0 23.43513,46.15326 v 12.019262 h 2.206469 z m -4.479908,1.281821 a 12.504672,12.504672 0 0 0 -0.635622,0.319574 12.504672,12.504672 0 0 0 -1.572021,1.095008 v 9.73403 h 2.207643 z m 11.234427,0.0059 v 11.142784 h 2.207643 v -9.752963 a 12.504672,12.504672 0 0 0 -1.573196,-1.076211 12.504672,12.504672 0 0 0 -0.634447,-0.313699 z m 4.481082,3.769091 v 7.373693 h 2.406201 A 12.504672,12.504672 0 0 0 36.8772,50.798926 Z m -20.196589,0.027 a 12.504672,12.504672 0 0 0 -2.4062,7.346671 h 2.4062 z" /><path
         id="path7-4-1-3-2-9-7"
         style="fill:#617fd9;fill-opacity:0.905325;stroke:#617fd9;stroke-width:0;stroke-linecap:round;stroke-linejoin:round;stroke-dasharray:none;paint-order:stroke fill markers"
         d="M 25.642772,70.62313 V 58.17268 H 23.43513 v 12.041583 a 12.504672,12.504672 0 0 0 2.207642,0.408867 z m 2.273438,-0.02001 a 12.504672,12.504672 0 0 0 2.20647,-0.411169 V 58.172694 h -2.20647 z m 4.479908,-1.28182 a 12.504672,12.504672 0 0 0 0.635622,-0.319573 12.504672,12.504672 0 0 0 1.572021,-1.095009 V 58.17269 H 32.396118 Z M 21.161691,69.3154 V 58.172595 h -2.207643 v 9.752964 a 12.504672,12.504672 0 0 0 1.573197,1.076212 12.504672,12.504672 0 0 0 0.634446,0.3137 z m -4.48108,-3.76909 v -7.373683 h -2.4062 a 12.504672,12.504672 0 0 0 2.4062,7.373695 z m 20.196589,-0.027 a 12.504672,12.504672 0 0 0 2.406201,-7.34667 H 36.8772 Z" /><path
         id="path5"
         style="fill:#130754;fill-opacity:1;stroke:#617fd9;stroke-width:0;stroke-linecap:round;stroke-linejoin:round;stroke-dasharray:none;paint-order:stroke fill markers"
         d="M 26.779353,42.25733 A 15.915037,15.915037 0 0 0 10.864116,58.172573 15.915037,15.915037 0 0 0 26.779353,74.087813 15.915037,15.915037 0 0 0 42.693418,58.172573 15.915037,15.915037 0 0 0 26.779353,42.25733 Z m 0,3.46479 A 12.504672,12.504672 0 0 1 39.283848,58.226618 12.504672,12.504672 0 0 1 26.779353,70.731113 12.504672,12.504672 0 0 1 14.27486,58.226618 12.504672,12.504672 0 0 1 26.779353,45.72212 Z" /><path
         id="path5-2"
         style="fill:#130754;fill-opacity:1;stroke:#617fd9;stroke-width:0;stroke-linecap:round;stroke-linejoin:round;stroke-dasharray:none;paint-order:stroke fill markers"
         d="M 82.49092,42.25733 A 15.915037,15.915037 0 0 0 66.576853,58.172573 15.915037,15.915037 0 0 0 82.49092,74.087813 15.915037,15.915037 0 0 0 98.406162,58.172573 15.915037,15.915037 0 0 0 82.49092,42.25733 Z m 0,3.46479 A 12.504672,12.504672 0 0 1 94.995417,58.226618 12.504672,12.504672 0 0 1 82.49092,70.731113 12.504672,12.504672 0 0 1 69.986425,58.226618 12.504672,12.504672 0 0 1 82.49092,45.72212 Z" /><path
         id="path7-4-1-3-2-9-7-6-1"
         style="fill:#617fd9;fill-opacity:0.905325;stroke:#617fd9;stroke-width:0;stroke-linecap:round;stroke-linejoin:round;stroke-dasharray:none;paint-order:stroke fill markers"
         d="m 55.716502,45.722083 v 12.450451 h 2.207643 V 46.13095 a 12.504672,12.504672 0 0 0 -2.207643,-0.408867 z m -2.273437,0.02001 a 12.504672,12.504672 0 0 0 -2.206471,0.411171 v 12.019262 h 2.206471 z m -4.479908,1.281821 a 12.504672,12.504672 0 0 0 -0.635622,0.319574 12.504672,12.504672 0 0 0 -1.572022,1.095008 v 9.73403 h 2.207644 z m 11.234426,0.0059 v 11.142784 h 2.207644 V 48.419656 A 12.504672,12.504672 0 0 0 60.83203,47.343445 12.504672,12.504672 0 0 0 60.197583,47.029746 Z m 4.481082,3.769091 v 7.373693 h 2.4062 a 12.504672,12.504672 0 0 0 -2.4062,-7.373693 z m -20.19659,0.027 a 12.504672,12.504672 0 0 0 -2.406202,7.346671 h 2.406202 z" /><path
         id="path7-4-1-3-2-9-3-9"
         style="fill:#008080;fill-opacity:1;stroke:#617fd9;stroke-width:0;stroke-linecap:round;stroke-linejoin:round;stroke-dasharray:none;paint-order:stroke fill markers"
         d="M 53.444237,70.62313 V 58.17268 h -2.207643 v 12.041583 a 12.504672,12.504672 0 0 0 2.207643,0.408867 z m 2.273438,-0.02001 a 12.504672,12.504672 0 0 0 2.20647,-0.411169 V 58.172694 h -2.20647 z m 4.479908,-1.28182 a 12.504672,12.504672 0 0 0 0.635622,-0.319573 12.504672,12.504672 0 0 0 1.572022,-1.095009 V 58.17269 H 60.197583 Z M 48.963157,69.3154 V 58.172595 h -2.207644 v 9.752964 a 12.504672,12.504672 0 0 0 1.573197,1.076212 12.504672,12.504672 0 0 0 0.634447,0.3137 z m -4.481082,-3.76909 v -7.373694 h -2.406202 a 12.504672,12.504672 0 0 0 2.406202,7.373694 z m 20.19659,-0.027 a 12.504672,12.504672 0 0 0 2.4062,-7.34667 h -2.4062 z" /><path
         id="path7-4-1-3-2-9-3"
         style="fill:#008080;fill-opacity:1;stroke:#617fd9;stroke-width:0;stroke-linecap:round;stroke-linejoin:round;stroke-dasharray:none;paint-order:stroke fill markers"
         d="M 83.627626,45.722083 V 58.172534 H 85.83527 V 46.13095 a 12.504672,12.504672 0 0 0 -2.207644,-0.408867 z m -2.273438,0.02001 a 12.504672,12.504672 0 0 0 -2.20647,0.411171 v 12.019262 h 2.20647 z M 76.87428,47.02391 a 12.504672,12.504672 0 0 0 -0.635621,0.319574 12.504672,12.504672 0 0 0 -1.572021,1.095008 v 9.73403 h 2.207642 z m 11.234428,0.0059 V 58.172594 H 90.31635 V 48.419631 A 12.504672,12.504672 0 0 0 88.743153,47.34342 12.504672,12.504672 0 0 0 88.108708,47.029721 Z m 4.48108,3.769091 v 7.373693 h 2.406202 a 12.504672,12.504672 0 0 0 -2.406202,-7.373693 z m -20.196588,0.027 a 12.504672,12.504672 0 0 0 -2.406202,7.346671 H 72.3932 Z" /><path
         id="path7-4-1-3-2-9-7-6"
         style="fill:#617fd9;fill-opacity:0.905325;stroke:#617fd9;stroke-width:0;stroke-linecap:round;stroke-linejoin:round;stroke-dasharray:none;paint-order:stroke fill markers"
         d="M 81.355362,70.62313 V 58.17268 h -2.207644 v 12.041583 a 12.504672,12.504672 0 0 0 2.207644,0.408867 z M 83.6288,70.60312 a 12.504672,12.504672 0 0 0 2.20647,-0.411169 V 58.172694 H 83.6288 Z m 4.479908,-1.28182 a 12.504672,12.504672 0 0 0 0.635622,-0.319573 12.504672,12.504672 0 0 0 1.57202,-1.095009 V 58.172694 H 88.108708 Z M 76.87428,69.315379 V 58.172595 h -2.207642 v 9.752964 a 12.504672,12.504672 0 0 0 1.573197,1.076212 12.504672,12.504672 0 0 0 0.634445,0.3137 z m -4.48108,-3.76909 v -7.373694 h -2.406202 a 12.504672,12.504672 0 0 0 2.406202,7.373694 z m 20.196588,-0.027 a 12.504672,12.504672 0 0 0 2.406202,-7.34667 h -2.406202 z" /></g></g></svg>
