<?xml version="1.0" encoding="UTF-8" standalone="no"?>
<!-- Created with Inkscape (http://www.inkscape.org/) -->

<svg
   width="450"
   height="350"
   viewBox="0 0 119.0625 92.604166"
   version="1.1"
   id="svg1"
   inkscape:version="1.3.2 (091e20e, 2023-11-25, custom)"
   sodipodi:docname="pbp_dark.svg"
   xml:space="preserve"
   inkscape:export-filename="pbp_dark.png"
   inkscape:export-xdpi="300"
   inkscape:export-ydpi="300"
   xmlns:inkscape="http://www.inkscape.org/namespaces/inkscape"
   xmlns:sodipodi="http://sodipodi.sourceforge.net/DTD/sodipodi-0.dtd"
   xmlns="http://www.w3.org/2000/svg"
   xmlns:svg="http://www.w3.org/2000/svg"><sodipodi:namedview
     id="namedview1"
     pagecolor="#ffffff"
     bordercolor="#000000"
     borderopacity="0.25"
     inkscape:showpageshadow="2"
     inkscape:pageopacity="0.0"
     inkscape:pagecheckerboard="0"
     inkscape:deskcolor="#d1d1d1"
     inkscape:document-units="mm"
     inkscape:zoom="1.8494108"
     inkscape:cx="179.51664"
     inkscape:cy="180.86842"
     inkscape:window-width="1366"
     inkscape:window-height="715"
     inkscape:window-x="-8"
     inkscape:window-y="-8"
     inkscape:window-maximized="1"
     inkscape:current-layer="layer1" /><defs
     id="defs1"><rect
       x="232.46373"
       y="77.997696"
       width="542.92517"
       height="116.23186"
       id="rect6" /><inkscape:path-effect
       effect="powermask"
       id="path-effect44"
       is_visible="true"
       lpeversion="1"
       uri="#mask-powermask-path-effect44"
       invert="false"
       hide_mask="false"
       background="true"
       background_color="#ffffffff" /><inkscape:path-effect
       effect="fillet_chamfer"
       id="path-effect16"
       is_visible="true"
       lpeversion="1"
       nodesatellites_param="F,0,0,1,0,5.4034078,0,1 @ F,0,0,1,0,0,0,1 @ F,0,0,1,0,3.6984855,0,1 @ F,0,0,1,0,1.4119605,0,1"
       radius="0"
       unit="px"
       method="auto"
       mode="F"
       chamfer_steps="1"
       flexible="false"
       use_knot_distance="true"
       apply_no_radius="true"
       apply_with_radius="true"
       only_selected="false"
       hide_knots="false" /><inkscape:perspective
       sodipodi:type="inkscape:persp3d"
       inkscape:vp_x="0 : -55.895835 : 1"
       inkscape:vp_y="0 : 1000 : 0"
       inkscape:vp_z="210 : -55.895835 : 1"
       inkscape:persp3d-origin="105.00003 : -105.39585 : 1"
       id="perspective15" /><rect
       x="335.24191"
       y="114.6311"
       width="439.05875"
       height="276.84494"
       id="rect5" /><rect
       x="189.79018"
       y="184.92377"
       width="183.84235"
       height="126.52679"
       id="rect4" /><rect
       x="188.16805"
       y="83.810478"
       width="235.75076"
       height="222.77367"
       id="rect3" /><rect
       x="51.908424"
       y="218.44795"
       width="307.66556"
       height="173.5688"
       id="rect2" /><rect
       x="45.881001"
       y="81.056435"
       width="252.34549"
       height="120.81996"
       id="rect1" /><rect
       x="51.908424"
       y="218.44795"
       width="307.66556"
       height="173.5688"
       id="rect2-3" /><filter
       id="mask-powermask-path-effect46_inverse"
       inkscape:label="filtermask-powermask-path-effect46"
       style="color-interpolation-filters:sRGB"
       height="100"
       width="100"
       x="-50"
       y="-50"><feColorMatrix
         id="mask-powermask-path-effect46_primitive1"
         values="1"
         type="saturate"
         result="fbSourceGraphic" /><feColorMatrix
         id="mask-powermask-path-effect46_primitive2"
         values="-1 0 0 0 1 0 -1 0 0 1 0 0 -1 0 1 0 0 0 1 0 "
         in="fbSourceGraphic" /></filter></defs><g
     inkscape:label="Livello 1"
     inkscape:groupmode="layer"
     id="layer1"
     transform="translate(-10.864116,-32.240185)"><rect
       style="fill:#ffffff;fill-opacity:1;stroke:#617fd9;stroke-width:0;stroke-linecap:round;stroke-linejoin:round;stroke-dasharray:none;paint-order:stroke fill markers"
       id="rect9-3"
       width="4.9398456"
       height="52.556526"
       x="85.365227"
       y="48.476006"
       inkscape:export-filename="rect9.png"
       inkscape:export-xdpi="600"
       inkscape:export-ydpi="600" /><path
       id="path5-0"
       style="fill:#ffffff;fill-opacity:1;stroke:#617fd9;stroke-width:0;stroke-linecap:round;stroke-linejoin:round;stroke-dasharray:none;paint-order:stroke fill markers"
       d="M 70.298364,48.475704 A 19.987813,19.987813 0 0 0 50.31177,68.463776 19.987813,19.987813 0 0 0 70.298364,88.451843 19.987813,19.987813 0 0 0 90.286432,68.463776 19.987813,19.987813 0 0 0 70.298364,48.475704 Z m 0,4.351456 A 15.70471,15.70471 0 0 1 86.002856,68.531651 15.70471,15.70471 0 0 1 70.298364,84.236139 15.70471,15.70471 0 0 1 54.593874,68.531651 15.70471,15.70471 0 0 1 70.298364,52.82716 Z" /><rect
       style="fill:#ffffff;fill-opacity:1;stroke:#617fd9;stroke-width:0;stroke-linecap:round;stroke-linejoin:round;stroke-dasharray:none;paint-order:stroke fill markers"
       id="rect9-4"
       width="4.9398456"
       height="52.556526"
       x="50.311409"
       y="-88.451622"
       transform="scale(1,-1)" /><rect
       style="fill:#ffffff;fill-opacity:1;stroke:#617fd9;stroke-width:0;stroke-linecap:round;stroke-linejoin:round;stroke-dasharray:none;paint-order:stroke fill markers"
       id="rect9"
       width="4.9398456"
       height="52.556526"
       x="15.395423"
       y="48.476006" /><path
       id="path7-4-1-3-2-9"
       style="fill:#008080;fill-opacity:1;stroke:#617fd9;stroke-width:0;stroke-linecap:round;stroke-linejoin:round;stroke-dasharray:none;paint-order:stroke fill markers"
       d="m 36.809747,52.827113 v 15.636614 h 2.772594 V 53.340612 a 15.70471,15.70471 0 0 0 -2.772594,-0.513499 z m -2.855229,0.02513 a 15.70471,15.70471 0 0 0 -2.771121,0.516388 v 15.09508 h 2.771121 z m -5.62635,1.609848 a 15.70471,15.70471 0 0 0 -0.798282,0.401356 15.70471,15.70471 0 0 0 -1.974313,1.375228 v 12.225041 h 2.772595 z m 14.1094,0.0074 v 13.994305 h 2.772595 V 56.214989 A 15.70471,15.70471 0 0 0 43.234375,54.863367 15.70471,15.70471 0 0 0 42.437568,54.46939 Z m 5.627824,4.733629 v 9.260676 h 3.021966 a 15.70471,15.70471 0 0 0 -3.021966,-9.260649 z m -25.365045,0.03391 a 15.70471,15.70471 0 0 0 -3.021965,9.226738 h 3.021965 z" /><path
       id="path7-4-1-3-2-9-7"
       style="fill:#617fd9;fill-opacity:1;stroke:#617fd9;stroke-width:0;stroke-linecap:round;stroke-linejoin:round;stroke-dasharray:none;paint-order:stroke fill markers"
       d="M 33.955991,84.100522 V 68.46391 h -2.772594 v 15.123113 a 15.70471,15.70471 0 0 0 2.772594,0.513499 z m 2.855228,-0.02513 a 15.70471,15.70471 0 0 0 2.771122,-0.516391 V 68.463928 h -2.771122 z m 5.626349,-1.609848 a 15.70471,15.70471 0 0 0 0.798283,-0.401354 15.70471,15.70471 0 0 0 1.974312,-1.37523 V 68.463923 h -2.772595 z m -14.1094,-0.0074 V 68.463803 h -2.772595 v 12.24882 a 15.70471,15.70471 0 0 0 1.97579,1.351623 15.70471,15.70471 0 0 0 0.796805,0.393978 z m -5.627821,-4.733628 v -9.260663 h -3.021965 a 15.70471,15.70471 0 0 0 3.021965,9.260678 z m 25.365045,-0.03391 a 15.70471,15.70471 0 0 0 3.021966,-9.226737 h -3.021966 z" /><path
       id="path5"
       style="fill:#ffffff;fill-opacity:1;stroke:#617fd9;stroke-width:0;stroke-linecap:round;stroke-linejoin:round;stroke-dasharray:none;paint-order:stroke fill markers"
       d="M 35.383432,48.475704 A 19.987813,19.987813 0 0 0 15.395368,68.463776 19.987813,19.987813 0 0 0 35.383432,88.451843 19.987813,19.987813 0 0 0 55.370024,68.463776 19.987813,19.987813 0 0 0 35.383432,48.475704 Z m 0,4.351456 A 15.70471,15.70471 0 0 1 51.087919,68.531651 15.70471,15.70471 0 0 1 35.383432,84.236139 15.70471,15.70471 0 0 1 19.678946,68.531651 15.70471,15.70471 0 0 1 35.383432,52.82716 Z" /><path
       id="path5-2"
       style="fill:#ffffff;fill-opacity:1;stroke:#617fd9;stroke-width:0;stroke-linecap:round;stroke-linejoin:round;stroke-dasharray:none;paint-order:stroke fill markers"
       d="M 105.352,48.475704 A 19.987813,19.987813 0 0 0 85.365406,68.463776 19.987813,19.987813 0 0 0 105.352,88.451843 19.987813,19.987813 0 0 0 125.34006,68.463776 19.987813,19.987813 0 0 0 105.352,48.475704 Z m 0,4.351456 A 15.70471,15.70471 0 0 1 121.05649,68.531651 15.70471,15.70471 0 0 1 105.352,84.236139 15.70471,15.70471 0 0 1 89.647513,68.531651 15.70471,15.70471 0 0 1 105.352,52.82716 Z" /><path
       id="path7-4-1-3-2-9-7-6-1"
       style="fill:#617fd9;fill-opacity:1;stroke:#617fd9;stroke-width:0;stroke-linecap:round;stroke-linejoin:round;stroke-dasharray:none;paint-order:stroke fill markers"
       d="m 71.725811,52.827113 v 15.636614 h 2.772595 V 53.340612 a 15.70471,15.70471 0 0 0 -2.772595,-0.513499 z m -2.855226,0.02513 a 15.70471,15.70471 0 0 0 -2.771124,0.516393 v 15.09508 h 2.771124 z m -5.62635,1.609848 a 15.70471,15.70471 0 0 0 -0.798282,0.401356 15.70471,15.70471 0 0 0 -1.974314,1.375228 v 12.225041 h 2.772596 z m 14.109399,0.0074 V 68.463807 H 80.12623 V 56.215015 a 15.70471,15.70471 0 0 0 -1.975789,-1.351621 15.70471,15.70471 0 0 0 -0.796807,-0.393977 z m 5.627824,4.733629 v 9.260676 h 3.021964 A 15.70471,15.70471 0 0 0 82.981458,59.20312 Z m -25.365047,0.03391 a 15.70471,15.70471 0 0 0 -3.021967,9.226738 h 3.021967 z" /><path
       id="path7-4-1-3-2-9-3-9"
       style="fill:#008080;fill-opacity:1;stroke:#617fd9;stroke-width:0;stroke-linecap:round;stroke-linejoin:round;stroke-dasharray:none;paint-order:stroke fill markers"
       d="M 68.872057,84.100522 V 68.46391 h -2.772596 v 15.123113 a 15.70471,15.70471 0 0 0 2.772596,0.513499 z m 2.855227,-0.02513 a 15.70471,15.70471 0 0 0 2.771122,-0.516391 V 68.463928 h -2.771122 z m 5.62635,-1.609848 A 15.70471,15.70471 0 0 0 78.151916,82.06419 15.70471,15.70471 0 0 0 80.12623,80.68896 V 68.463923 h -2.772596 z m -14.109399,-0.0074 V 68.463803 h -2.772596 v 12.24882 a 15.70471,15.70471 0 0 0 1.975789,1.351623 15.70471,15.70471 0 0 0 0.796807,0.393978 z M 57.616411,77.724507 V 68.46383 h -3.021967 a 15.70471,15.70471 0 0 0 3.021967,9.260677 z m 25.365047,-0.03391 a 15.70471,15.70471 0 0 0 3.021964,-9.226737 h -3.021964 z" /><path
       id="path7-4-1-3-2-9-3"
       style="fill:#008080;fill-opacity:1;stroke:#617fd9;stroke-width:0;stroke-linecap:round;stroke-linejoin:round;stroke-dasharray:none;paint-order:stroke fill markers"
       d="m 106.7796,52.827113 v 15.636614 h 2.77259 V 53.340612 a 15.70471,15.70471 0 0 0 -2.77259,-0.513499 z m -2.85523,0.02513 a 15.70471,15.70471 0 0 0 -2.77112,0.516393 v 15.09508 h 2.77112 z m -5.626349,1.609843 a 15.70471,15.70471 0 0 0 -0.798281,0.401356 15.70471,15.70471 0 0 0 -1.974313,1.375228 v 12.225041 h 2.772594 z m 14.109399,0.0074 v 13.994305 h 2.7726 V 56.214984 a 15.70471,15.70471 0 0 0 -1.97579,-1.351622 15.70471,15.70471 0 0 0 -0.79681,-0.393977 z m 5.62782,4.733629 v 9.260676 h 3.02197 a 15.70471,15.70471 0 0 0 -3.02197,-9.260676 z m -25.36504,0.03391 a 15.70471,15.70471 0 0 0 -3.021967,9.226738 H 92.6702 Z" /><path
       id="path7-4-1-3-2-9-7-6"
       style="fill:#617fd9;fill-opacity:1;stroke:#617fd9;stroke-width:0;stroke-linecap:round;stroke-linejoin:round;stroke-dasharray:none;paint-order:stroke fill markers"
       d="M 103.92585,84.100522 V 68.46391 h -2.7726 v 15.123113 a 15.70471,15.70471 0 0 0 2.7726,0.513499 z m 2.85522,-0.02513 a 15.70471,15.70471 0 0 0 2.77112,-0.516391 V 68.463928 h -2.77112 z m 5.62635,-1.609848 a 15.70471,15.70471 0 0 0 0.79828,-0.401354 15.70471,15.70471 0 0 0 1.97432,-1.37523 V 68.463928 h -2.7726 z m -14.109399,-0.0074 V 68.463803 h -2.772594 v 12.24882 a 15.70471,15.70471 0 0 0 1.97579,1.351623 15.70471,15.70471 0 0 0 0.796804,0.393978 z M 92.6702,77.724507 V 68.46383 h -3.021967 a 15.70471,15.70471 0 0 0 3.021967,9.260677 z m 25.36504,-0.03391 a 15.70471,15.70471 0 0 0 3.02197,-9.226737 h -3.02197 z" /><text
       xml:space="preserve"
       transform="matrix(0.37540805,0,0,0.37540805,-73.423833,68.259109)"
       id="text1"
       style="font-style:normal;font-variant:normal;font-weight:normal;font-stretch:normal;font-size:53.5463px;font-family:FontAwesome;-inkscape-font-specification:FontAwesome;letter-spacing:0px;word-spacing:0px;white-space:pre;shape-inside:url(#rect6);display:inline;fill:#ffffff;fill-opacity:1;stroke:#617fd9;stroke-width:0;stroke-linecap:round;stroke-linejoin:round;stroke-dasharray:none;paint-order:stroke fill markers"><tspan
         x="232.46289"
         y="130.58816"
         id="tspan4"><tspan
           style="font-family:'Century Gothic';-inkscape-font-specification:'Century Gothic';baseline-shift:baseline"
           id="tspan3">pybioportal</tspan></tspan></text></g></svg>
