<?xml version="1.0" encoding="UTF-8" standalone="no"?>
<!-- Created with Inkscape (http://www.inkscape.org/) -->

<svg
   width="94mm"
   height="58mm"
   viewBox="0 0 94 58"
   version="1.1"
   id="svg1"
   inkscape:version="1.3.2 (091e20e, 2023-11-25, custom)"
   sodipodi:docname="pbp_light_logo.svg"
   xml:space="preserve"
   inkscape:export-filename="pbp_light_logo.png"
   inkscape:export-xdpi="300"
   inkscape:export-ydpi="300"
   xmlns:inkscape="http://www.inkscape.org/namespaces/inkscape"
   xmlns:sodipodi="http://sodipodi.sourceforge.net/DTD/sodipodi-0.dtd"
   xmlns="http://www.w3.org/2000/svg"
   xmlns:svg="http://www.w3.org/2000/svg"><sodipodi:namedview
     id="namedview1"
     pagecolor="#ffffff"
     bordercolor="#000000"
     borderopacity="0.25"
     inkscape:showpageshadow="2"
     inkscape:pageopacity="0.0"
     inkscape:pagecheckerboard="0"
     inkscape:deskcolor="#d1d1d1"
     inkscape:document-units="mm"
     inkscape:zoom="0.92470539"
     inkscape:cx="229.26221"
     inkscape:cy="160.59169"
     inkscape:window-width="1366"
     inkscape:window-height="715"
     inkscape:window-x="-8"
     inkscape:window-y="-8"
     inkscape:window-maximized="1"
     inkscape:current-layer="layer1" /><defs
     id="defs1"><rect
       x="232.46373"
       y="77.997696"
       width="542.92517"
       height="116.23186"
       id="rect6" /><inkscape:path-effect
       effect="powermask"
       id="path-effect44"
       is_visible="true"
       lpeversion="1"
       uri="#mask-powermask-path-effect44"
       invert="false"
       hide_mask="false"
       background="true"
       background_color="#ffffffff" /><inkscape:path-effect
       effect="fillet_chamfer"
       id="path-effect16"
       is_visible="true"
       lpeversion="1"
       nodesatellites_param="F,0,0,1,0,5.4034078,0,1 @ F,0,0,1,0,0,0,1 @ F,0,0,1,0,3.6984855,0,1 @ F,0,0,1,0,1.4119605,0,1"
       radius="0"
       unit="px"
       method="auto"
       mode="F"
       chamfer_steps="1"
       flexible="false"
       use_knot_distance="true"
       apply_no_radius="true"
       apply_with_radius="true"
       only_selected="false"
       hide_knots="false" /><inkscape:perspective
       sodipodi:type="inkscape:persp3d"
       inkscape:vp_x="0 : -90.500004 : 1"
       inkscape:vp_y="0 : 999.99997 : 0"
       inkscape:vp_z="210 : -90.500004 : 1"
       inkscape:persp3d-origin="105 : -140.00002 : 1"
       id="perspective15" /><rect
       x="335.24191"
       y="114.6311"
       width="439.05875"
       height="276.84494"
       id="rect5" /><rect
       x="189.79018"
       y="184.92377"
       width="183.84235"
       height="126.52679"
       id="rect4" /><rect
       x="188.16805"
       y="83.810478"
       width="235.75076"
       height="222.77367"
       id="rect3" /><rect
       x="51.908424"
       y="218.44795"
       width="307.66556"
       height="173.5688"
       id="rect2" /><rect
       x="45.881001"
       y="81.056435"
       width="252.34549"
       height="120.81996"
       id="rect1" /><rect
       x="51.908424"
       y="218.44795"
       width="307.66556"
       height="173.5688"
       id="rect2-3" /><filter
       id="mask-powermask-path-effect46_inverse"
       inkscape:label="filtermask-powermask-path-effect46"
       style="color-interpolation-filters:sRGB"
       height="100"
       width="100"
       x="-50"
       y="-50"><feColorMatrix
         id="mask-powermask-path-effect46_primitive1"
         values="1"
         type="saturate"
         result="fbSourceGraphic" /><feColorMatrix
         id="mask-powermask-path-effect46_primitive2"
         values="-1 0 0 0 1 0 -1 0 0 1 0 0 -1 0 1 0 0 0 1 0 "
         in="fbSourceGraphic" /></filter></defs><g
     inkscape:label="Livello 1"
     inkscape:groupmode="layer"
     id="layer1"
     transform="translate(-10.864116,-32.240185)"><rect
       style="fill:#130754;fill-opacity:1;stroke:#617fd9;stroke-width:0;stroke-linecap:round;stroke-linejoin:round;stroke-dasharray:none;paint-order:stroke fill markers"
       id="rect9-3"
       width="3.9332879"
       height="41.847454"
       x="69.805687"
       y="45.325153"
       inkscape:export-filename="rect9.png"
       inkscape:export-xdpi="600"
       inkscape:export-ydpi="600" /><path
       id="path5-0"
       style="fill:#130754;fill-opacity:1;stroke:#617fd9;stroke-width:0;stroke-linecap:round;stroke-linejoin:round;stroke-dasharray:none;paint-order:stroke fill markers"
       d="M 57.808893,45.32491 A 15.915037,15.915037 0 0 0 41.894826,61.240152 15.915037,15.915037 0 0 0 57.808893,77.155392 15.915037,15.915037 0 0 0 73.724133,61.240152 15.915037,15.915037 0 0 0 57.808893,45.32491 Z m 0,3.46479 A 12.504672,12.504672 0 0 1 70.313391,61.294198 12.504672,12.504672 0 0 1 57.808893,73.798692 12.504672,12.504672 0 0 1 45.304396,61.294198 12.504672,12.504672 0 0 1 57.808893,48.7897 Z" /><rect
       style="fill:#130754;fill-opacity:1;stroke:#617fd9;stroke-width:0;stroke-linecap:round;stroke-linejoin:round;stroke-dasharray:none;paint-order:stroke fill markers"
       id="rect9-4"
       width="3.9332879"
       height="41.847454"
       x="41.894539"
       y="-77.15522"
       transform="scale(1,-1)" /><rect
       style="fill:#130754;fill-opacity:1;stroke:#617fd9;stroke-width:0;stroke-linecap:round;stroke-linejoin:round;stroke-dasharray:none;paint-order:stroke fill markers"
       id="rect9"
       width="3.9332879"
       height="41.847454"
       x="14.093138"
       y="45.325153" /><path
       id="path7-4-1-3-2-9"
       style="fill:#008080;fill-opacity:1;stroke:#617fd9;stroke-width:0;stroke-linecap:round;stroke-linejoin:round;stroke-dasharray:none;paint-order:stroke fill markers"
       d="m 31.144015,48.789662 v 12.450451 h 2.207642 V 49.198529 a 12.504672,12.504672 0 0 0 -2.207642,-0.408867 z m -2.273439,0.02001 a 12.504672,12.504672 0 0 0 -2.206469,0.411168 v 12.019262 h 2.206469 z m -4.479908,1.281821 a 12.504672,12.504672 0 0 0 -0.635622,0.319575 12.504672,12.504672 0 0 0 -1.572021,1.095008 v 9.73403 h 2.207643 z m 11.234427,0.0059 v 11.142784 h 2.207643 v -9.752963 a 12.504672,12.504672 0 0 0 -1.573196,-1.076211 12.504672,12.504672 0 0 0 -0.634447,-0.313699 z m 4.481082,3.769091 v 7.373694 h 2.406201 a 12.504672,12.504672 0 0 0 -2.406201,-7.373672 z m -20.196589,0.027 a 12.504672,12.504672 0 0 0 -2.4062,7.346671 h 2.4062 z" /><path
       id="path7-4-1-3-2-9-7"
       style="fill:#617fd9;fill-opacity:1;stroke:#617fd9;stroke-width:0;stroke-linecap:round;stroke-linejoin:round;stroke-dasharray:none;paint-order:stroke fill markers"
       d="m 28.871749,73.690709 v -12.45045 h -2.207642 v 12.041583 a 12.504672,12.504672 0 0 0 2.207642,0.408867 z m 2.273438,-0.02001 a 12.504672,12.504672 0 0 0 2.20647,-0.411169 V 61.240273 h -2.20647 z m 4.479908,-1.281819 a 12.504672,12.504672 0 0 0 0.635622,-0.319574 12.504672,12.504672 0 0 0 1.572021,-1.095009 V 61.24027 h -2.207643 z m -11.234427,-0.0059 V 61.240175 h -2.207643 v 9.752963 a 12.504672,12.504672 0 0 0 1.573197,1.076212 12.504672,12.504672 0 0 0 0.634446,0.3137 z m -4.48108,-3.76909 v -7.373683 h -2.4062 a 12.504672,12.504672 0 0 0 2.4062,7.373695 z m 20.196589,-0.027 a 12.504672,12.504672 0 0 0 2.406201,-7.34667 h -2.406201 z" /><path
       id="path5"
       style="fill:#130754;fill-opacity:1;stroke:#617fd9;stroke-width:0;stroke-linecap:round;stroke-linejoin:round;stroke-dasharray:none;paint-order:stroke fill markers"
       d="M 30.00833,45.32491 A 15.915037,15.915037 0 0 0 14.093093,61.240152 15.915037,15.915037 0 0 0 30.00833,77.155392 15.915037,15.915037 0 0 0 45.922395,61.240152 15.915037,15.915037 0 0 0 30.00833,45.32491 Z m 0,3.46479 A 12.504672,12.504672 0 0 1 42.512825,61.294198 12.504672,12.504672 0 0 1 30.00833,73.798692 12.504672,12.504672 0 0 1 17.503837,61.294198 12.504672,12.504672 0 0 1 30.00833,48.7897 Z" /><path
       id="path5-2"
       style="fill:#130754;fill-opacity:1;stroke:#617fd9;stroke-width:0;stroke-linecap:round;stroke-linejoin:round;stroke-dasharray:none;paint-order:stroke fill markers"
       d="M 85.719897,45.32491 A 15.915037,15.915037 0 0 0 69.80583,61.240152 15.915037,15.915037 0 0 0 85.719897,77.155392 15.915037,15.915037 0 0 0 101.63514,61.240152 15.915037,15.915037 0 0 0 85.719897,45.32491 Z m 0,3.46479 A 12.504672,12.504672 0 0 1 98.224394,61.294198 12.504672,12.504672 0 0 1 85.719897,73.798692 12.504672,12.504672 0 0 1 73.215402,61.294198 12.504672,12.504672 0 0 1 85.719897,48.7897 Z" /><path
       id="path7-4-1-3-2-9-7-6-1"
       style="fill:#617fd9;fill-opacity:1;stroke:#617fd9;stroke-width:0;stroke-linecap:round;stroke-linejoin:round;stroke-dasharray:none;paint-order:stroke fill markers"
       d="m 58.945479,48.789662 v 12.450451 h 2.207643 V 49.198529 a 12.504672,12.504672 0 0 0 -2.207643,-0.408867 z m -2.273437,0.02001 a 12.504672,12.504672 0 0 0 -2.206471,0.411171 v 12.019262 h 2.206471 z m -4.479908,1.281821 a 12.504672,12.504672 0 0 0 -0.635622,0.319575 12.504672,12.504672 0 0 0 -1.572022,1.095008 v 9.73403 h 2.207644 z m 11.234426,0.0059 v 11.142784 h 2.207644 V 51.487236 A 12.504672,12.504672 0 0 0 64.061007,50.411025 12.504672,12.504672 0 0 0 63.42656,50.097326 Z m 4.481082,3.769091 v 7.373694 h 2.4062 a 12.504672,12.504672 0 0 0 -2.4062,-7.373694 z m -20.19659,0.027 a 12.504672,12.504672 0 0 0 -2.406202,7.346671 h 2.406202 z" /><path
       id="path7-4-1-3-2-9-3-9"
       style="fill:#008080;fill-opacity:1;stroke:#617fd9;stroke-width:0;stroke-linecap:round;stroke-linejoin:round;stroke-dasharray:none;paint-order:stroke fill markers"
       d="m 56.673214,73.690709 v -12.45045 h -2.207643 v 12.041583 a 12.504672,12.504672 0 0 0 2.207643,0.408867 z m 2.273438,-0.02001 a 12.504672,12.504672 0 0 0 2.20647,-0.411169 V 61.240273 h -2.20647 z M 63.42656,72.38888 a 12.504672,12.504672 0 0 0 0.635622,-0.319574 12.504672,12.504672 0 0 0 1.572022,-1.095009 V 61.24027 H 63.42656 Z m -11.234426,-0.0059 V 61.240175 H 49.98449 v 9.752963 a 12.504672,12.504672 0 0 0 1.573197,1.076212 12.504672,12.504672 0 0 0 0.634447,0.3137 z m -4.481082,-3.76909 V 61.240195 H 45.30485 a 12.504672,12.504672 0 0 0 2.406202,7.373694 z m 20.19659,-0.027 a 12.504672,12.504672 0 0 0 2.4062,-7.34667 h -2.4062 z" /><path
       id="path7-4-1-3-2-9-3"
       style="fill:#008080;fill-opacity:1;stroke:#617fd9;stroke-width:0;stroke-linecap:round;stroke-linejoin:round;stroke-dasharray:none;paint-order:stroke fill markers"
       d="m 86.856603,48.789662 v 12.450451 h 2.207644 V 49.198529 a 12.504672,12.504672 0 0 0 -2.207644,-0.408867 z m -2.273438,0.02001 a 12.504672,12.504672 0 0 0 -2.20647,0.411171 v 12.019262 h 2.20647 z m -4.479908,1.281818 a 12.504672,12.504672 0 0 0 -0.635621,0.319574 12.504672,12.504672 0 0 0 -1.572021,1.095008 v 9.73403 h 2.207642 z m 11.234428,0.0059 v 11.142784 h 2.207642 V 51.487211 A 12.504672,12.504672 0 0 0 91.97213,50.411 12.504672,12.504672 0 0 0 91.337685,50.097301 Z m 4.48108,3.769092 v 7.373693 h 2.406202 a 12.504672,12.504672 0 0 0 -2.406202,-7.373693 z m -20.196588,0.027 a 12.504672,12.504672 0 0 0 -2.406202,7.346671 h 2.406202 z" /><path
       id="path7-4-1-3-2-9-7-6"
       style="fill:#617fd9;fill-opacity:1;stroke:#617fd9;stroke-width:0;stroke-linecap:round;stroke-linejoin:round;stroke-dasharray:none;paint-order:stroke fill markers"
       d="m 84.584339,73.690709 v -12.45045 h -2.207644 v 12.041583 a 12.504672,12.504672 0 0 0 2.207644,0.408867 z m 2.273438,-0.02001 a 12.504672,12.504672 0 0 0 2.20647,-0.411169 V 61.240273 h -2.20647 z m 4.479908,-1.281819 a 12.504672,12.504672 0 0 0 0.635622,-0.319574 12.504672,12.504672 0 0 0 1.57202,-1.095009 v -9.734024 h -2.207642 z m -11.234428,-0.0059 V 61.240175 h -2.207642 v 9.752963 a 12.504672,12.504672 0 0 0 1.573197,1.076212 12.504672,12.504672 0 0 0 0.634445,0.3137 z m -4.48108,-3.76909 v -7.373694 h -2.406202 a 12.504672,12.504672 0 0 0 2.406202,7.373694 z m 20.196588,-0.027 a 12.504672,12.504672 0 0 0 2.406202,-7.34667 h -2.406202 z" /></g></svg>
